<svg width="660" height="126.9128000339454" viewBox="0 0 528.3297626864679 101.5936507936508" class="css-1j8o68f">
<defs id="SvgjsDefs1125"/>
<g id="SvgjsG1126" featurekey="U6MYgK-0" transform="matrix(2.422480691790934,0,0,2.422480691790934,92,-3.3720922173519945)" fill="#393e46">
<path d="M4.48 14.84 l-0.19 -0.38 l-0.51 -1.03 l-0.72 -1.47 l-0.82 -1.68 c-0.65334 -1.3333 -1.4 -2.86 -2.24 -4.58 l3.6 0 l2.58 5.88 c0.48 -1.0933 0.90666 -2.0734 1.28 -2.94 c0.16 -0.36 0.31666 -0.71666 0.47 -1.07 s0.29 -0.67 0.41 -0.95 s0.21666 -0.50334 0.29 -0.67 l0.11 -0.25 l3.5 0 l-4.48 9.16 l0 5.16 l-3.28 0 l0 -5.18 z M13.540000000000001 5.699999999999999 l8.42 0 c-0.13334 0.50666 -0.26668 0.98666 -0.40002 1.44 s-0.26668 0.92 -0.40002 1.4 l-4.4 0 c0 0.05334 0.0066602 0.13 0.02 0.23 s0.02 0.17666 0.02 0.23 l0 2.1 l4.04 0 l0 2.86 l-4.04 0 l0 2.74 l-0.04 0.46 l5.28 0 l0 2.84 l-8.5 0 l0 -14.3 z M24.12 5.699999999999999 l3.18 0 l0 11.42 l2.3 0 l0.5 0.06 l0 -1.36 l2.7 -1.26 l0 5.44 l-8.68 0 l0 -14.3 z M34.8 5.699999999999999 l3.18 0 l0 11.42 l2.3 0 l0.5 0.06 l0 -1.36 l2.7 -1.26 l0 5.44 l-8.68 0 l0 -14.3 z M50.42 20.22 c-1.0933 0 -2.0234 -0.18666 -2.79 -0.56 s-1.3933 -0.88668 -1.88 -1.54 s-0.84332 -1.43 -1.07 -2.33 s-0.34 -1.8833 -0.34 -2.95 s0.11334 -2.05 0.34 -2.95 s0.58332 -1.6733 1.07 -2.32 s1.1133 -1.15 1.88 -1.51 s1.6967 -0.54 2.79 -0.54 s2.0234 0.18 2.79 0.54 s1.3933 0.86334 1.88 1.51 s0.84 1.42 1.06 2.32 s0.33 1.8833 0.33 2.95 s-0.11 2.05 -0.33 2.95 s-0.57334 1.6767 -1.06 2.33 s-1.1133 1.1667 -1.88 1.54 s-1.6967 0.56 -2.79 0.56 z M50.42 17.42 c0.92 0 1.5833 -0.38 1.99 -1.14 s0.61 -1.9067 0.61 -3.44 s-0.19666 -2.66 -0.59 -3.38 s-1.0567 -1.08 -1.99 -1.08 c-0.94666 0 -1.6233 0.36 -2.03 1.08 s-0.61 1.8467 -0.61 3.38 s0.20334 2.68 0.61 3.44 s1.0767 1.14 2.01 1.14 z M57.099999999999994 5.720000000000001 l3.48 0 l1.8 8.92 l2.22 -8.92 l3 0 l2.2 9.12 l1.94 -9.12 l3.18 0 l-0.14 0.61 l-0.38 1.62 l-0.55 2.29 l-0.63 2.62 l-0.63 2.63 l-0.56 2.29 l-0.4 1.61 l-0.15 0.61 l-3.4 0 l-2.1 -8.62 l-2.24 8.62 l-3.2 0 z M76.96 5.720000000000001 l3.42 0 l3.04 7.44 l0.23 -0.55 l0.57 -1.37 l0.73 -1.79 l0.73 -1.8 l0.56 -1.38 l0.22 -0.55 l3.2 0 l0.7 14.28 l-3.3 0 l-0.14 -8.34 l-2.34 5.44 l-2.42 0 l-2.42 -5.44 l-0.22 8.34 l-3.1 0 z M98.56 20.22 c-1.0933 0 -2.0234 -0.18666 -2.79 -0.56 s-1.3933 -0.88668 -1.88 -1.54 s-0.84332 -1.43 -1.07 -2.33 s-0.34 -1.8833 -0.34 -2.95 s0.11334 -2.05 0.34 -2.95 s0.58332 -1.6733 1.07 -2.32 s1.1133 -1.15 1.88 -1.51 s1.6967 -0.54 2.79 -0.54 s2.0234 0.18 2.79 0.54 s1.3933 0.86334 1.88 1.51 s0.84 1.42 1.06 2.32 s0.33 1.8833 0.33 2.95 s-0.11 2.05 -0.33 2.95 s-0.57334 1.6767 -1.06 2.33 s-1.1133 1.1667 -1.88 1.54 s-1.6967 0.56 -2.79 0.56 z M98.56 17.42 c0.92 0 1.5833 -0.38 1.99 -1.14 s0.61 -1.9067 0.61 -3.44 s-0.19666 -2.66 -0.59 -3.38 s-1.0567 -1.08 -1.99 -1.08 c-0.94666 0 -1.6233 0.36 -2.03 1.08 s-0.61 1.8467 -0.61 3.38 s0.20334 2.68 0.61 3.44 s1.0767 1.14 2.01 1.14 z M107.32000000000001 8.2 l-1.9 0 l1.3 -2.5 l3.28 0 l4.74 7.84 l0.12 0.34 l0 -8.18 l3.12 0 l0 14.3 l-2.66 0 l-4.8 -7.9 l-0.1 -0.3 l0 8.2 l-3.1 0 l0 -11.8 z M124.42 12.74 l3.76 -7.02 l3.62 0 l-3.78 6.88 l4.24 7.4 l-3.64 0 z M121.12 8.2 l-1.52 0 l1.3 -2.5 l3.46 0 l0 14.32 l-3.24 0 l0 -11.82 z M136.72 14.84 l-0.19 -0.38 l-0.51 -1.03 l-0.72 -1.47 l-0.82 -1.68 c-0.65334 -1.3333 -1.4 -2.86 -2.24 -4.58 l3.6 0 l2.58 5.88 c0.48 -1.0933 0.90666 -2.0734 1.28 -2.94 c0.16 -0.36 0.31666 -0.71666 0.47 -1.07 s0.29 -0.67 0.41 -0.95 s0.21666 -0.50334 0.29 -0.67 l0.11 -0.25 l3.5 0 l-4.48 9.16 l0 5.16 l-3.28 0 l0 -5.18 z"/>
</g>
<g id="SvgjsG1127" featurekey="Nr57KM-0" transform="matrix(1.0479589842794679,0,0,1.0479589842794679,4.769448743623278,80.25720523409743)" fill="#4ecca3">
<path d="M11.26 5.84 l0 1.8 l-4.56 0 l0 12.36 l-1.92 0 l0 -12.36 l-4.56 0 l0 -1.8 l11.04 0 z M28.852000000000004 5.84 l0 5.88 l7.34 0 l0 -5.88 l1.92 0 l0 14.16 l-1.92 0 l0 -6.48 l-7.34 0 l0 6.48 l-1.92 0 l0 -14.16 l1.92 0 z M57.30400000000001 5.84 l0 14.16 l-1.92 0 l0 -14.16 l1.92 0 z M77.096 5.84 l7.8 11.64 l0.04 0 l0 -11.64 l1.92 0 l0 14.16 l-2.44 0 l-7.88 -11.64 l-0.04 0 l0 11.64 l-1.92 0 l0 -14.16 l2.52 0 z M106.04799999999999 5.84 l0 6.12 l0.16 0 l6.26 -6.12 l2.68 0 l-6.84 6.54 l7.3 7.62 l-2.8 0 l-6.6 -7.08 l-0.16 0 l0 7.08 l-1.92 0 l0 -14.16 l1.92 0 z M131.68 17.48 c0.37334 0 0.68664 0.13342 0.93998 0.40008 s0.38 0.57332 0.38 0.91998 c0 0.38666 -0.13334 0.70332 -0.4 0.94998 s-0.57332 0.37 -0.91998 0.37 s-0.65332 -0.12666 -0.91998 -0.38 s-0.4 -0.56668 -0.4 -0.94002 s0.13334 -0.68668 0.4 -0.94002 s0.57332 -0.38 0.91998 -0.38 z M178.00400000000002 5.84 l0 1.8 l-6.98 0 l0 4.44 l6.5 0 l0 1.8 l-6.5 0 l0 6.12 l-1.92 0 l0 -14.16 l8.9 0 z M203.35600000000002 5.84 l0 1.8 l-7.22 0 l0 4.22 l6.72 0 l0 1.8 l-6.72 0 l0 4.54 l7.58 0 l0 1.8 l-9.5 0 l0 -14.16 l9.14 0 z M229.20800000000003 5.84 l0 1.8 l-7.22 0 l0 4.22 l6.72 0 l0 1.8 l-6.72 0 l0 4.54 l7.58 0 l0 1.8 l-9.5 0 l0 -14.16 l9.14 0 z M247.84000000000003 5.84 l0 12.36 l6.5 0 l0 1.8 l-8.42 0 l0 -14.16 l1.92 0 z M270.892 17.48 c0.37334 0 0.68664 0.13342 0.93998 0.40008 s0.38 0.57332 0.38 0.91998 c0 0.38666 -0.13334 0.70332 -0.4 0.94998 s-0.57332 0.37 -0.91998 0.37 s-0.65332 -0.12666 -0.91998 -0.38 s-0.4 -0.56668 -0.4 -0.94002 s0.13334 -0.68668 0.4 -0.94002 s0.57332 -0.38 0.91998 -0.38 z M314.81600000000003 5.48 c1 0 1.9367 0.18664 2.81 0.55998 s1.59 0.92 2.15 1.64 l-1.6 1.22 c-0.86666 -1.08 -2.0066 -1.62 -3.42 -1.62 c-1.5333 0 -2.7966 0.54666 -3.79 1.64 s-1.49 2.4666 -1.49 4.12 c0 1.6 0.49 2.92 1.47 3.96 s2.25 1.56 3.81 1.56 s2.7934 -0.63334 3.7 -1.9 l1.62 1.22 c-0.56 0.74666 -1.3067 1.3467 -2.24 1.8 s-1.9733 0.68 -3.12 0.68 c-1.36 0 -2.5934 -0.33 -3.7 -0.99 s-1.98 -1.5667 -2.62 -2.72 s-0.96 -2.3634 -0.96 -3.63 c0 -2.1866 0.68666 -3.99 2.06 -5.41 s3.1466 -2.13 5.32 -2.13 z M342.208 5.84 l6.06 14.16 l-2.24 0 l-1.42 -3.5 l-6.74 0 l-1.4 3.5 l-2.24 0 l6.24 -14.16 l1.74 0 z M338.548 14.82 l5.36 0 l-2.64 -6.5 l-0.04 0 z M371.34000000000003 5.84 l0 1.8 l-4.56 0 l0 12.36 l-1.92 0 l0 -12.36 l-4.56 0 l0 -1.8 l11.04 0 z M393.51200000000006 5.48 c1 0 1.9367 0.18664 2.81 0.55998 s1.59 0.92 2.15 1.64 l-1.6 1.22 c-0.86666 -1.08 -2.0066 -1.62 -3.42 -1.62 c-1.5333 0 -2.7966 0.54666 -3.79 1.64 s-1.49 2.4666 -1.49 4.12 c0 1.6 0.49 2.92 1.47 3.96 s2.25 1.56 3.81 1.56 s2.7934 -0.63334 3.7 -1.9 l1.62 1.22 c-0.56 0.74666 -1.3067 1.3467 -2.24 1.8 s-1.9733 0.68 -3.12 0.68 c-1.36 0 -2.5934 -0.33 -3.7 -0.99 s-1.98 -1.5667 -2.62 -2.72 s-0.96 -2.3634 -0.96 -3.63 c0 -2.1866 0.68666 -3.99 2.06 -5.41 s3.1466 -2.13 5.32 -2.13 z M416.64400000000006 5.84 l0 5.88 l7.34 0 l0 -5.88 l1.92 0 l0 14.16 l-1.92 0 l0 -6.48 l-7.34 0 l0 6.48 l-1.92 0 l0 -14.16 l1.92 0 z M464.0280000000001 5.84 l0 8.74 c0 1.16 0.32334 2.1134 0.97 2.86 s1.51 1.12 2.59 1.12 s1.9433 -0.37334 2.59 -1.12 s0.97 -1.7 0.97 -2.86 l0 -8.74 l1.92 0 l0 9.06 c0 0.97334 -0.23 1.8833 -0.69 2.73 s-1.1133 1.5133 -1.96 2 s-1.79 0.73 -2.83 0.73 c-1.6 0 -2.9134 -0.52334 -3.94 -1.57 s-1.54 -2.3434 -1.54 -3.89 l0 -9.06 l1.92 0 z M495.16 5.84 c1.3733 0 2.4566 0.34 3.25 1.02 s1.19 1.66 1.19 2.94 c0 1.24 -0.39334 2.21 -1.18 2.91 s-1.8733 1.05 -3.26 1.05 l-3.16 0 l0 6.24 l-1.92 0 l0 -14.16 l5.08 0 z M494.6 12.08 c1 0 1.7433 -0.18336 2.23 -0.55002 s0.73 -0.94332 0.73 -1.73 c0 -1.52 -0.98666 -2.28 -2.96 -2.28 l-2.6 0 l0 4.56 l2.6 0 z"/>
</g>
</svg>